<svg width="53" height="52" viewBox="0 0 53 52" fill="none" xmlns="http://www.w3.org/2000/svg">
<path d="M26.6387 41.8284L18.2728 36.302L9.5203 37.3808C8.89103 37.4655 8.37834 37.2683 7.98223 36.7892C7.58613 36.3101 7.46381 35.7698 7.61526 35.1684L13.6619 11.1573C13.7555 10.7857 13.9457 10.4841 14.2327 10.2523C14.5196 10.0206 14.8663 9.87996 15.2727 9.83032L23.9281 9.13742C24.3285 9.11666 24.7163 9.14564 25.0917 9.22435C25.467 9.30307 25.8224 9.46125 26.1577 9.69889L34.5235 15.2253L43.276 14.1465C43.9053 14.0618 44.4179 14.2596 44.8137 14.7398C45.2095 15.2201 45.332 15.7598 45.1811 16.3589L39.1345 40.37C39.0409 40.7416 38.8512 41.0434 38.5654 41.2754C38.2796 41.5074 37.9323 41.6479 37.5236 41.697L28.8683 42.3899C28.4679 42.4106 28.08 42.3817 27.7047 42.3029C27.3293 42.2242 26.974 42.0661 26.6387 41.8284ZM26.9994 37.8612L32.0526 17.7948L25.797 13.6661L20.7437 33.7325L26.9994 37.8612ZM30.4295 38.725L36.0067 38.3056L41.1247 17.982L35.4828 18.6586L30.4295 38.725ZM11.6717 33.5453L17.3136 32.8687L22.3668 12.8023L16.7897 13.2217L11.6717 33.5453Z" fill="#FA2239"/>
</svg>
