<svg width="21" height="20" viewBox="0 0 21 20" fill="none" xmlns="http://www.w3.org/2000/svg">
<path d="M11.3119 9.45858L5.25688 3.40353C5.17079 3.32332 5.05693 3.27965 4.93928 3.28172C4.82163 3.2838 4.70938 3.33146 4.62618 3.41466C4.54297 3.49787 4.49531 3.61012 4.49323 3.72777C4.49116 3.84542 4.53483 3.95928 4.61505 4.04537L10.3484 9.7795L4.61505 15.5136C4.53483 15.5997 4.49116 15.7136 4.49323 15.8312C4.49531 15.9489 4.54297 16.0611 4.62618 16.1443C4.70938 16.2275 4.82163 16.2752 4.93928 16.2773C5.05693 16.2793 5.17079 16.2357 5.25688 16.1555L11.3119 10.1004C11.397 10.0153 11.4447 9.89984 11.4447 9.7795C11.4447 9.65915 11.397 9.54373 11.3119 9.45858ZM17.367 10.1004L11.3119 16.1555C11.2258 16.2357 11.112 16.2793 10.9943 16.2773C10.8767 16.2752 10.7644 16.2275 10.6812 16.1443C10.598 16.0611 10.5504 15.9489 10.5483 15.8312C10.5462 15.7136 10.5899 15.5997 10.6701 15.5136L16.4035 9.7795L10.6701 4.04537C10.6255 4.00379 10.5897 3.95366 10.5649 3.89795C10.54 3.84225 10.5267 3.78211 10.5256 3.72114C10.5245 3.66016 10.5358 3.59959 10.5586 3.54305C10.5814 3.4865 10.6154 3.43513 10.6586 3.39201C10.7017 3.34888 10.7531 3.31489 10.8096 3.29205C10.8661 3.26921 10.9267 3.25799 10.9877 3.25907C11.0487 3.26014 11.1088 3.27349 11.1645 3.29831C11.2202 3.32313 11.2704 3.35892 11.3119 3.40353L17.367 9.45858C17.452 9.54373 17.4998 9.65915 17.4998 9.7795C17.4998 9.89984 17.452 10.0153 17.367 10.1004Z" fill="#FA2239"/>
</svg>
